<?xml version="1.0" standalone="no"?>
<!DOCTYPE svg PUBLIC "-//W3C//DTD SVG 20010904//EN"
 "http://www.w3.org/TR/2001/REC-SVG-20010904/DTD/svg10.dtd">
<svg version="1.0" xmlns="http://www.w3.org/2000/svg"
 width="299.000000pt" height="318.000000pt" viewBox="0 0 299.000000 318.000000"
 preserveAspectRatio="xMidYMid meet">

<g transform="translate(0.000000,318.000000) scale(0.100000,-0.100000)"
fill="#000000" stroke="none">
<path d="M1227 2641 c-137 -82 -255 -155 -264 -164 -10 -10 -12 -20 -6 -31 5
-9 78 -56 162 -106 l152 -90 37 20 c20 11 64 36 97 55 33 20 70 41 82 47 20
10 58 -10 325 -169 l303 -181 5 -216 c3 -119 7 -217 10 -218 6 -2 44 19 253
142 l162 96 3 154 c1 85 0 165 -3 177 -3 15 -88 72 -297 199 -161 98 -387 236
-501 306 -155 95 -216 128 -240 128 -23 -1 -102 -43 -280 -149z"/>
<path d="M675 2299 c-94 -50 -222 -129 -236 -145 -12 -15 -14 -99 -11 -553 2
-492 4 -537 20 -553 23 -22 679 -398 695 -398 4 0 7 85 7 189 0 166 -2 191
-17 209 -10 10 -81 57 -158 102 -77 46 -152 92 -167 102 l-28 19 0 305 c0 167
1 304 3 304 2 0 81 -47 177 -105 145 -87 176 -102 193 -94 34 19 248 149 283
173 l33 22 -361 217 c-198 119 -368 219 -377 222 -9 3 -34 -5 -56 -16z"/>
<path d="M1705 1876 c-115 -68 -329 -196 -475 -284 l-265 -161 0 -67 0 -67
115 -64 c63 -36 122 -65 130 -66 14 -1 537 296 668 379 l52 34 0 210 c0 115
-3 210 -7 210 -5 0 -102 -56 -218 -124z"/>
<path d="M2450 1572 c-69 -37 -150 -80 -180 -97 l-55 -30 -5 -112 -5 -113
-297 -175 c-164 -96 -300 -175 -303 -175 -3 0 -5 87 -5 194 l0 195 -160 -92
-160 -92 0 -260 0 -260 97 -55 c53 -30 107 -59 120 -63 31 -12 5 -25 943 507
79 45 129 80 137 96 14 28 19 601 6 599 -5 0 -64 -31 -133 -67z"/>
</g>
</svg>
